<svg width="16" height="13" viewBox="0 0 16 13" fill="none" xmlns="http://www.w3.org/2000/svg">
<path d="M14.4451 2.61369L5.79953 12.1616C5.72296 12.2468 5.61872 12.2948 5.50998 12.2948C5.40125 12.2948 5.29701 12.2468 5.22044 12.1616L0.824243 7.30656C0.747039 7.22199 0.703613 7.10688 0.703613 6.98679C0.703613 6.86671 0.747039 6.7516 0.824243 6.66703L1.39518 6.03651C1.47175 5.95125 1.57599 5.90329 1.68472 5.90329C1.79346 5.90329 1.89769 5.95125 1.97427 6.03651L5.50591 9.93672L13.2951 1.33464C13.4564 1.16189 13.7128 1.16189 13.8742 1.33464L14.4451 1.97417C14.5223 2.05873 14.5657 2.17384 14.5657 2.29393C14.5657 2.41401 14.5223 2.52913 14.4451 2.61369Z" fill="white" stroke="white" stroke-width="1.21142"/>
</svg>
