<svg width="17" height="17" viewBox="0 0 17 17" fill="none" xmlns="http://www.w3.org/2000/svg">
<path d="M6.6946 2.2337C6.52465 2.37853 6.43967 2.45095 6.34891 2.51178C6.14086 2.65123 5.90721 2.74801 5.66149 2.79652C5.5543 2.81768 5.44299 2.82657 5.22039 2.84433L5.22038 2.84433C4.66109 2.88896 4.38144 2.91128 4.14813 2.99369C3.6085 3.18429 3.18405 3.60875 2.99344 4.14837C2.91103 4.38168 2.88872 4.66133 2.84409 5.22063L2.84409 5.22064C2.82632 5.44324 2.81744 5.55454 2.79628 5.66173C2.74777 5.90745 2.65098 6.1411 2.51154 6.34915C2.45071 6.43991 2.37829 6.52489 2.23345 6.69485L2.23344 6.69486C1.86952 7.1219 1.68755 7.33543 1.58085 7.55867C1.33405 8.07503 1.33405 8.6753 1.58085 9.19165C1.68755 9.4149 1.86952 9.62842 2.23344 10.0555L2.23344 10.0555L2.23347 10.0555C2.37828 10.2254 2.45071 10.3104 2.51154 10.4012C2.65098 10.6092 2.74777 10.8429 2.79628 11.0886C2.81744 11.1958 2.82632 11.3071 2.84409 11.5297L2.84409 11.5297C2.88872 12.089 2.91103 12.3686 2.99344 12.602C3.18405 13.1416 3.6085 13.566 4.14813 13.7566C4.38144 13.839 4.66108 13.8614 5.22035 13.906L5.22039 13.906C5.44299 13.9238 5.5543 13.9326 5.66149 13.9538C5.90721 14.0023 6.14086 14.0991 6.34891 14.2385C6.43967 14.2994 6.52465 14.3718 6.69461 14.5166L6.69462 14.5166C7.12166 14.8806 7.33518 15.0625 7.55843 15.1692C8.07478 15.416 8.67506 15.416 9.19141 15.1692C9.41465 15.0625 9.62817 14.8806 10.0552 14.5166L10.0552 14.5166C10.2252 14.3718 10.3102 14.2994 10.4009 14.2385C10.609 14.0991 10.8426 14.0023 11.0883 13.9538C11.1955 13.9326 11.3068 13.9238 11.5294 13.906L11.5295 13.906C12.0888 13.8614 12.3684 13.839 12.6017 13.7566C13.1413 13.566 13.5658 13.1416 13.7564 12.602C13.8388 12.3686 13.8611 12.089 13.9057 11.5297L13.9058 11.5297C13.9235 11.3071 13.9324 11.1958 13.9536 11.0886C14.0021 10.8429 14.0989 10.6092 14.2383 10.4012C14.2991 10.3104 14.3716 10.2254 14.5164 10.0555C14.8803 9.62842 15.0623 9.4149 15.169 9.19165C15.4158 8.6753 15.4158 8.07503 15.169 7.55868C15.0623 7.33543 14.8803 7.12191 14.5164 6.69486L14.5164 6.69484C14.3715 6.52489 14.2991 6.43991 14.2383 6.34915C14.0989 6.1411 14.0021 5.90745 13.9536 5.66173C13.9324 5.55454 13.9235 5.44324 13.9058 5.22064L13.9057 5.2206C13.8611 4.66132 13.8388 4.38168 13.7564 4.14837C13.5658 3.60875 13.1413 3.18429 12.6017 2.99369C12.3684 2.91128 12.0887 2.88896 11.5295 2.84433L11.5294 2.84433C11.3068 2.82657 11.1955 2.81768 11.0883 2.79652C10.8426 2.74801 10.609 2.65123 10.4009 2.51178C10.3102 2.45095 10.2252 2.37853 10.0552 2.23369L10.0552 2.23368C9.62817 1.86976 9.41465 1.6878 9.19141 1.58109C8.67506 1.3343 8.07478 1.3343 7.55843 1.58109C7.33518 1.6878 7.12166 1.86977 6.69462 2.23369L6.6946 2.2337Z" fill="#57B77D"/>
<path d="M11.4273 6.88371C11.6491 6.66189 11.6491 6.30225 11.4273 6.08043C11.2055 5.85861 10.8458 5.85861 10.624 6.08043L7.23894 9.4655L6.1259 8.35245C5.90408 8.13063 5.54444 8.13063 5.32262 8.35245C5.10079 8.57427 5.10079 8.93392 5.32262 9.15574L6.8373 10.6704C7.05912 10.8922 7.41876 10.8922 7.64058 10.6704L11.4273 6.88371Z" fill="white"/>
</svg>
